PathFileType	4	(X/Y/Z)	Patient4_TMGait_0pt2_01_left_11.trc.trc
DataRate	CameraRate	NumFrames	NumMarkers	Units	OrigDataRate	OrigDataStartFrame	OrigNumFrames
42.553191489362	42.553191489362	5	33	mm	42.553191489362	18	       141
Frame#	Time	Sacral			L.Shoulder			Chest			R.Shoulder			Neck			R.ASIS			L.ASIS			R.Thigh.Superior			R.Thigh.Lateral			R.Thigh.Inferior			R.Patella			L.Thigh.Superior			L.Thigh.Lateral			L.Thigh.Inferior			L.Patella			L.Shank.Superior			L.Shank.Lateral			L.Shank.Inferior			R.Shank.Superior			R.Shank.Lateral			R.Shank.Inferior			R.Heel			R.Midfoot.Superior			R.Midfoot.Lateral			R.Toe			L.Heel			L.Midfoot.Lateral			L.Midfoot.Superior			L.Toe			L.Elbow			L.Wrist			R.Elbow			R.Wrist			
		X1	Y1	Z1	X2	Y2	Z2	X3	Y3	Z3	X4	Y4	Z4	X5	Y5	Z5	X6	Y6	Z6	X7	Y7	Z7	X8	Y8	Z8	X9	Y9	Z9	X10	Y10	Z10	X11	Y11	Z11	X12	Y12	Z12	X13	Y13	Z13	X14	Y14	Z14	X15	Y15	Z15	X16	Y16	Z16	X17	Y17	Z17	X18	Y18	Z18	X19	Y19	Z19	X20	Y20	Z20	X21	Y21	Z21	X22	Y22	Z22	X23	Y23	Z23	X24	Y24	Z24	X25	Y25	Z25	X26	Y26	Z26	X27	Y27	Z27	X28	Y28	Z28	X29	Y29	Z29	X30	Y30	Z30	X31	Y31	Z31	X32	Y32	Z32	X33	Y33	Z33	

18	25.029500000000	779.324258694951	1001.293271537265	566.799114762847	924.846758525552	1418.859859145159	342.514111720742	1052.138530157594	1357.983928595023	488.380990346557	998.618455144785	1440.058142332510	669.405284155936	932.684237376117	1488.430789955384	495.050798843442	1020.884569378164	935.775932216969	651.600915355895	971.792738748793	957.424642713846	381.377947611750	1044.413525381982	728.368719259958	608.136686988943	962.262617157200	618.628480492227	669.383745818180	1023.811215164879	568.008460216538	577.752089574754	1016.838541140553	477.050400044428	579.519559531882	1060.387390162729	777.678347660462	418.803157304964	1018.118023659166	648.183085430941	341.109090424324	1115.964547840984	591.361065475132	410.795943659610	1140.505891413864	517.748866262753	404.582978730301	1109.877331880897	443.419373087988	389.359251738633	1021.241401835851	333.275543632156	328.035770727532	1081.722029404881	215.510314855930	382.015186092570	976.153396968349	390.244376483920	584.329321206577	895.566133707430	292.934804170416	645.856221083735	918.208179143822	198.380904391263	574.750089323137	762.395864972282	43.377544902044	544.484402659920	934.923533331149	96.241110148849	579.872696612452	845.495540122578	37.274553260020	619.035486076718	1053.577071996029	42.874985238950	609.302737041376	959.370519846018	54.909090564897	407.882495412193	1037.905946053956	49.389356327383	332.321158557722	1120.752100149868	112.510776756814	359.304431575447	1248.313348980385	60.829845491005	338.269501646084	789.024679864090	1089.293950746302	261.820772010061	749.695183545734	833.523450685166	290.284847885388	1153.211153213685	1142.581266275827	797.599594635490	1392.118184619405	1180.444972386416	717.964196547247	
19	25.053000000000	779.743744047983	1002.552612254075	566.601162354198	924.191009804544	1420.048945115387	341.917797031803	1053.109035029709	1358.229075252167	486.061876566243	1002.042602891127	1440.347946955258	667.636783969212	934.019565177635	1489.053642239711	494.510047623923	1021.545492178690	935.455773963763	648.939020880069	970.284292541084	958.378156311350	379.158680928224	1042.054978060080	727.670393570849	605.627125467702	959.203798056015	618.950520469544	668.167413588727	1019.198369678903	567.485535219206	576.226329882139	1011.117765810424	477.122912716039	578.447902792734	1056.385933103982	775.786083843781	414.718483594000	1010.159554646881	646.995316484926	337.882276299238	1107.750159483698	589.026708579098	406.265850625042	1131.370117388983	517.414319527995	401.194675446642	1104.829572284314	443.203225687936	386.219099917944	1022.910804251184	327.345267088845	323.816790915690	1089.316830207848	212.796159893794	379.413040762399	970.844268288867	390.371112536223	583.680228738668	890.410442810274	293.111869489776	645.534203392070	913.197046658485	198.451370242861	574.614676845342	757.584769526773	43.244577755794	544.531015789460	930.130006583635	96.248868483815	579.855500684375	840.691366811930	37.222630084950	619.083620140453	1048.756909582544	43.004437656544	609.271589636318	974.449623981729	46.100845169741	403.843916917887	1055.052046499279	42.856899711547	329.833933472863	1134.922744394040	110.313077737277	357.985344753874	1265.977987047638	63.843047621547	340.192606696862	784.434845645187	1092.760994072040	262.095833499854	743.383027338140	837.216780519224	290.682139923732	1167.377018289481	1149.049380325645	791.306199566513	1399.738656361522	1206.163674086395	704.915004526629	
20	25.076500000000	780.449769607061	1003.446541083029	565.972172301556	923.856867569873	1420.853654860462	340.795785356771	1054.204359048371	1358.248181244240	483.414662710470	1005.249960829699	1440.360434583819	665.434680506899	935.424601586482	1489.382432674653	493.463024381385	1022.484092034037	935.020948712218	646.155770891655	969.204046707262	958.860164477734	376.800589508054	1040.091196569515	726.855863127794	603.066569790977	956.574505632711	619.090760215624	666.782878627325	1015.083559117481	566.822230170437	574.576781782845	1005.909856257092	477.018882995479	577.215196132346	1052.990923974750	773.576331177944	410.323056906791	1002.608276842769	645.433572783717	334.699070285366	1100.265756025341	586.394999851503	401.456843754585	1122.553147459325	516.455219303404	397.609391974433	1099.454451320397	442.507622668197	382.920315407194	1022.932694613416	322.428369596485	320.063306312253	1093.935677036697	210.775729481973	376.910185028794	965.908776015182	390.346219338884	582.878740442162	885.539121497380	293.238718339921	645.120548800433	908.323822240244	198.435725394566	574.416001030089	752.764006752846	43.104159522735	544.569697931273	925.336027340937	96.258898284303	579.838229432944	835.880922581787	37.160146193879	619.125451662783	1043.935395483050	43.133856831046	609.232604717576	985.141739179934	40.295354032466	400.707160306948	1066.889605772994	38.587473920743	327.643203762455	1144.529447074824	108.771429492302	356.509116484206	1277.626023931671	65.897792915862	340.854103200653	781.740517834838	1095.054880544786	262.074432812824	739.639862162334	839.505845047306	290.638715600794	1180.093388258582	1154.937451435620	784.631288601321	1404.862779120780	1229.193051872437	692.283726679601	
21	25.100000000000	781.443375485309	1004.021495932490	564.910291567471	923.857732116223	1421.293204944299	339.133281870504	1055.446239182918	1358.071590704054	480.429979258515	1008.269853812611	1440.137646971312	662.803549035179	936.904457830501	1489.451684864506	491.874737296715	1023.717387778111	934.501014074361	643.260681158297	968.579706500288	958.918949832666	374.307565459084	1038.564408179000	725.935463891788	600.484218514055	954.381239787770	619.064591316500	665.230856011488	1011.506990362111	566.028026595851	572.822213286249	1001.257924058388	476.737745175197	575.835434357123	1050.296127889751	771.187313946163	405.752686295251	995.704336000647	643.608162060696	331.681245231297	1093.694692810770	583.608587085638	396.587410922330	1114.344563679449	514.996194812239	393.986524757438	1094.015022501816	441.392451092227	379.606061638730	1021.463260345868	318.434644009720	316.901767376866	1095.824561875661	209.231663214294	374.633016433141	961.377349800484	390.184412531369	581.933948241465	880.973809136192	293.335873188734	644.623111501758	903.603174430960	198.350134703619	574.157326871087	747.942493343597	42.975020152395	544.604067667092	920.548870815066	96.267149551125	579.816472041604	831.072609382703	37.093594509712	619.159661155373	1039.120057241894	43.246900516953	609.189512076440	991.564875933942	36.934866081292	398.572367864014	1073.635549388356	36.140199554570	325.820543399866	1149.864207243547	107.637154150047	354.988074983687	1283.816641307713	66.832808659096	340.292723443342	780.779485400826	1096.226203127547	261.629873595560	738.236093805835	840.500861667006	290.087351205446	1191.324981413615	1160.103132392748	777.678453277573	1407.907066180495	1249.328204843378	680.134696205404	
22	25.123500000000	782.707439790879	1004.349365257104	563.424932663988	924.197798069680	1421.415194326042	336.943624815659	1056.856803688354	1357.743327111802	477.112332481179	1011.152929473183	1439.737308833614	659.764483583131	938.471039733299	1489.314098913606	489.741497871453	1025.240046997034	933.928583875198	640.252978624682	968.413215835000	958.643142851083	371.675495117399	1037.492158541177	724.931467235016	597.891342080614	952.609682430151	618.902866975367	663.508710019383	1008.479518783967	565.125695113661	570.974541593736	997.176762302865	476.292359228606	574.322084046906	1048.341247988979	768.765375125198	401.161135284452	989.672322110543	641.657052794650	328.896625883196	1088.154601834600	580.818382587504	391.878422022015	1106.998170688058	513.196778606472	390.478910336907	1088.784416253457	439.954425880640	376.410924721341	1018.821987650548	315.240193126439	314.362115005853	1095.432870884334	207.969074094895	372.672145727868	957.261953898814	389.910534301775	580.856051706988	876.720877229694	293.431154386850	644.047302974223	899.044847234106	198.218434330545	573.841208326908	743.130801601697	42.881145446675	544.636033610508	915.776677271279	96.268976062102	579.780432728901	826.276224336966	37.033620420248	619.183768366163	1034.319098226829	43.326359002420	609.146777793786	994.165992999947	35.403934756874	397.396658294936	1075.913174219853	35.026723580666	324.394705900475	1151.523075259657	106.688620088586	353.546955299017	1285.452317167650	66.626257949175	338.749944793769	781.334331247033	1096.405924512000	260.657257719972	738.926974308815	840.387585250372	288.966268327974	1201.103964905666	1164.454817718841	770.553928173066	1409.305985053996	1266.498762335687	668.497288913246	
